# xmcd
#
# Track frame offsets:
#	150
#	15432
#	36191
#	63657
#	88042
#	102650
#	126486
#	138920
#	159036
#	179197
#	197811
#	218161
#	239909
#	247274
#	268781
#	294368
#
# Disc length: 4414 seconds
#
# Revision: 0
# Processed by: cddbd v1.5.1PL0 Copyright (c) Steve Scherf et al.
# Submitted via: EasyCDDAExtractor 8.2.1.1
#
DISCID=fc113c10
DTITLE=Lucio Battisti - Inediti Vol. 1
DYEAR=1970
DGENRE=Pop
TTITLE0=Il paradiso non è qui
TTITLE1=La spada nel cuore
TTITLE2=La folle corsa
TTITLE3=Gabbianoni
TTITLE4=Girasole
TTITLE5=Il bell'addio
TTITLE6=Risposta
TTITLE7=La pace
TTITLE8=Windsurf windsurf
TTITLE9=Allontanando
TTITLE10=Dalle prime battute
TTITLE11=Lo scenario
TTITLE12=Star in a film (prova)
TTITLE13=Star in a film (2° prova)
TTITLE14=The sun song
TTITLE15=Il nostro caro angelo
EXTD=
EXTT0=
EXTT1=
EXTT2=
EXTT3=
EXTT4=
EXTT5=
EXTT6=
EXTT7=
EXTT8=
EXTT9=
EXTT10=
EXTT11=
EXTT12=
EXTT13=
EXTT14=
EXTT15=
PLAYORDER=
